<svg width="512" height="512" viewBox="0 0 512 512" fill="none" xmlns="http://www.w3.org/2000/svg">
<g clip-path="url(#clip0_21_223)">
<path d="M512 0H0V512H512V0Z" fill="#FA4616"/>
<path d="M274.2 154.72H268.48C253.52 154.72 244.2 163.96 244.2 178.88V298.64C244.2 355.44 226.84 378.6 184.24 378.6C141.64 378.6 124.28 355.32 124.28 298.28V178.88C124.28 164 114.96 154.72 100 154.72H94.28C79.32 154.72 70 163.96 70 178.88V298.64C70 385.16 108.44 429 184.28 429C260.12 429 298.56 385.12 298.56 298.64V178.88C298.56 164 289.24 154.72 274.28 154.72H274.2Z" fill="white"/>
<path d="M367.12 227.4H362.36C347 227.4 337.48 237 337.48 252.48V403.92C337.48 419.4 347 429 362.36 429H367.12C382.48 429 392 419.4 392 403.92V252.48C392 237 382.48 227.4 367.12 227.4Z" fill="white"/>
<path d="M432.92 133.64C398.24 128.08 370.88 100.72 365.28 66.0801C365.16 65.4401 364.32 65.4401 364.24 66.0801C358.68 100.72 331.32 128.08 296.6 133.64C295.96 133.76 295.96 134.6 296.6 134.68C331.28 140.24 358.64 167.6 364.24 202.24C364.36 202.88 365.2 202.88 365.28 202.24C370.84 167.6 398.2 140.24 432.92 134.68C433.56 134.56 433.56 133.72 432.92 133.64ZM398.84 134.44C381.48 137.24 367.8 150.88 365.04 168.2C365 168.52 364.56 168.52 364.52 168.2C361.72 150.88 348.04 137.2 330.72 134.44C330.4 134.44 330.4 133.96 330.72 133.92C348.08 131.12 361.76 117.48 364.52 100.16C364.56 99.8401 365 99.8401 365.04 100.16C367.84 117.48 381.52 131.16 398.84 133.92C399.16 133.92 399.16 134.4 398.84 134.44Z" fill="white"/>
<path d="M453.72 79.56C436.36 82.36 422.68 96 419.92 113.32C419.88 113.64 419.44 113.64 419.4 113.32C416.6 96 402.92 82.32 385.6 79.56C385.28 79.52 385.28 79.08 385.6 79.04C402.96 76.24 416.64 62.6 419.4 45.28C419.44 44.96 419.88 44.96 419.92 45.28C422.72 62.6 436.4 76.28 453.72 79.04C454.04 79.08 454.04 79.52 453.72 79.56Z" fill="white"/>
</g>
<defs>
<clipPath id="clip0_21_223">
<rect width="512" height="512" fill="white"/>
</clipPath>
</defs>
</svg>
